<svg width="36" height="36" viewBox="0 0 36 36" fill="none" xmlns="http://www.w3.org/2000/svg">
<g clip-path="url(#clip0_1020_4164)">
<circle cx="18.014" cy="18.014" r="17.2635" stroke="#444444" stroke-width="1.50117"/>
<path d="M24.5702 18.9214C24.8717 19.4542 25.0283 20.0567 25.0244 20.6689C25.0205 21.2811 24.8562 21.8816 24.5479 22.4105C24.2396 22.9394 23.798 23.3782 23.2673 23.6833C22.7365 23.9884 22.1351 24.149 21.5229 24.1492H18.0201C17.0911 24.1492 16.2002 23.7802 15.5433 23.1233C14.8864 22.4664 14.5174 21.5755 14.5174 20.6465C14.5174 19.7175 14.8864 18.8266 15.5433 18.1697C16.2002 17.5128 17.0911 17.1438 18.0201 17.1438H18.8958C19.128 17.1438 19.3508 17.0515 19.515 16.8873C19.6792 16.7231 19.7715 16.5003 19.7715 16.2681C19.7715 16.0358 19.6792 15.8131 19.515 15.6489C19.3508 15.4847 19.128 15.3924 18.8958 15.3924H18.0201C16.6266 15.3924 15.2902 15.946 14.3049 16.9313C13.3196 17.9166 12.766 19.253 12.766 20.6465C12.766 22.04 13.3196 23.3764 14.3049 24.3617C15.2902 25.347 16.6266 25.9006 18.0201 25.9006H21.5229C22.4436 25.901 23.3483 25.6594 24.1462 25.2C24.9442 24.7406 25.6075 24.0796 26.0695 23.2832C26.5316 22.4868 26.7762 21.5829 26.779 20.6622C26.7817 19.7414 26.5425 18.8361 26.0852 18.037L26.0764 18.0195C26.0172 17.9206 25.9391 17.8343 25.8465 17.7656C25.7539 17.6969 25.6488 17.6471 25.5369 17.619C25.4251 17.591 25.3089 17.5852 25.1949 17.6021C25.0808 17.619 24.9712 17.6581 24.8723 17.7173C24.7734 17.7766 24.6872 17.8547 24.6185 17.9472C24.5498 18.0398 24.5 18.145 24.4719 18.2568C24.4439 18.3686 24.4381 18.4848 24.455 18.5989C24.4718 18.7129 24.511 18.8225 24.5702 18.9214ZM11.47 17.1175C11.1685 16.5847 11.0119 15.9822 11.0158 15.37C11.0197 14.7578 11.184 14.1573 11.4923 13.6284C11.8006 13.0995 12.2422 12.6607 12.773 12.3556C13.3037 12.0505 13.9052 11.8899 14.5174 11.8897H18.0201C18.9491 11.8897 19.84 12.2587 20.4969 12.9156C21.1538 13.5725 21.5229 14.4634 21.5229 15.3924C21.5229 16.3214 21.1538 17.2123 20.4969 17.8692C19.84 18.5261 18.9491 18.8951 18.0201 18.8951H17.1444C16.9122 18.8951 16.6895 18.9874 16.5252 19.1516C16.361 19.3158 16.2688 19.5386 16.2688 19.7708C16.2688 20.0031 16.361 20.2258 16.5252 20.39C16.6895 20.5542 16.9122 20.6465 17.1444 20.6465H18.0201C19.4136 20.6465 20.75 20.0929 21.7353 19.1076C22.7207 18.1223 23.2742 16.7859 23.2742 15.3924C23.2742 13.9989 22.7207 12.6625 21.7353 11.6772C20.75 10.6919 19.4136 10.1383 18.0201 10.1383H14.5174C13.5966 10.1379 12.692 10.3796 11.894 10.8389C11.096 11.2983 10.4328 11.9593 9.97072 12.7557C9.50866 13.5521 9.264 14.456 9.26125 15.3767C9.25851 16.2975 9.49777 17.2028 9.95508 18.0019L9.96384 18.0195C10.0231 18.1183 10.1012 18.2046 10.1937 18.2733C10.2863 18.342 10.3915 18.3918 10.5033 18.4199C10.6151 18.4479 10.7313 18.4537 10.8454 18.4368C10.9594 18.42 11.069 18.3808 11.1679 18.3216C11.2668 18.2623 11.3531 18.1842 11.4218 18.0917C11.4905 17.9991 11.5403 17.8939 11.5683 17.7821C11.5964 17.6703 11.6021 17.5541 11.5853 17.44C11.5684 17.326 11.5292 17.2164 11.47 17.1175Z" fill="#444444"/>
</g>
<defs>
<clipPath id="clip0_1020_4164">
<rect width="36" height="36" fill="white"/>
</clipPath>
</defs>
</svg>
