<svg width="37" height="37" viewBox="0 0 37 37" fill="none" xmlns="http://www.w3.org/2000/svg">
<circle cx="18.014" cy="18.014" r="17.2635" stroke="#444444" stroke-width="1.50117"/>
<path d="M27 12.4199C26.3252 12.72 25.6093 12.9172 24.876 13.0049C25.6461 12.5431 26.2219 11.817 26.496 10.9619C25.7699 11.3934 24.9755 11.6977 24.147 11.8619C23.6394 11.3248 22.9823 10.9524 22.2606 10.7931C21.539 10.6338 20.7861 10.6948 20.0996 10.9682C19.413 11.2417 18.8244 11.715 18.4099 12.3269C17.9955 12.9387 17.7743 13.6609 17.775 14.3999C17.7762 14.6818 17.8094 14.9626 17.874 15.2369C16.4044 15.1623 14.9669 14.7791 13.6551 14.1124C12.3433 13.4456 11.1865 12.5102 10.26 11.3669C9.93044 11.9293 9.75648 12.5692 9.756 13.2209C9.73965 13.8226 9.87443 14.4188 10.148 14.9549C10.4216 15.4911 10.8252 15.9501 11.322 16.2899C10.71 16.2719 9.567 16.1099 9.567 15.8309V15.8759C9.58975 16.7323 9.90339 17.5554 10.4563 18.2097C11.0092 18.8641 11.7684 19.3106 12.609 19.4759C12.316 19.5581 12.0133 19.6005 11.709 19.6019C11.4825 19.6028 11.2564 19.5817 11.034 19.5389C11.2717 20.2729 11.7323 20.9144 12.3518 21.3742C12.9712 21.8339 13.7187 22.089 14.49 22.1039C13.1842 23.1398 11.5668 23.7043 9.9 23.7059C9.5992 23.7055 9.29869 23.6875 9 23.6519C10.689 24.7357 12.6542 25.3105 14.661 25.3079C16.046 25.3223 17.4199 25.0607 18.7027 24.5384C19.9855 24.0162 21.1514 23.2436 22.1325 22.2659C23.1135 21.2882 23.89 20.125 24.4167 18.844C24.9433 17.563 25.2096 16.1899 25.2 14.8049V14.3279C25.9073 13.8025 26.5166 13.1567 27 12.4199Z" fill="#444444"/>
</svg>
