<svg width="36" height="36" viewBox="0 0 36 36" fill="none" xmlns="http://www.w3.org/2000/svg">
<g clip-path="url(#clip0_2875_9013)">
<circle cx="18.014" cy="18.014" r="17.2635" stroke="#444444" stroke-width="1.50117"/>
<path d="M27.6088 13.2005C27.7555 13.8362 27.9022 14.8631 27.9511 16.1834L28 17.9927V19.8998C27.9511 21.269 27.8044 22.2958 27.6577 22.9316C27.5599 23.3227 27.3154 23.7139 27.022 24.0073C26.7286 24.3007 26.3374 24.5453 25.8973 24.643C25.2616 24.7897 23.7946 24.9364 21.4474 25.0342L18.0244 25.0831L14.6993 25.0342C12.3521 24.9364 10.8851 24.8386 10.2494 24.643C9.80928 24.5453 9.41808 24.3007 9.12468 24.0073C8.7335 23.7139 8.53788 23.3227 8.39118 22.9316C8.24448 22.247 8.09778 21.269 8.04889 19.8998L8 18.0905C8 17.5526 8 16.9658 8.04889 16.2812C8.09778 14.9609 8.24448 13.934 8.39118 13.2983C8.53788 12.7604 8.7335 12.3692 9.07579 12.0758C9.41808 11.7824 9.76039 11.5379 10.2005 11.3912C10.8362 11.2445 12.3032 11.0978 14.6504 11.0489L18.0244 11L21.3496 11.0489C23.6968 11.0978 25.2127 11.2445 25.8484 11.3912C26.2885 11.489 26.6797 11.7335 26.9731 12.0269C27.2665 12.3692 27.511 12.7604 27.6088 13.2005V13.2005ZM15.9707 21.0734L21.2029 18.0905L15.9707 15.1076V21.0734Z" fill="#444444"/>
</g>
<defs>
<clipPath id="clip0_2875_9013">
<rect width="36" height="36" fill="white"/>
</clipPath>
</defs>
</svg>
