<svg width="36" height="36" viewBox="0 0 36 36" fill="none" xmlns="http://www.w3.org/2000/svg">
<g clip-path="url(#clip0_1020_4124)">
<circle cx="18.014" cy="18.014" r="17.2635" stroke="#444444" stroke-width="1.50117"/>
<g clip-path="url(#clip1_1020_4124)">
<path d="M24.5579 15.38C24.6208 15.3905 25.1132 15.2805 25.1341 15.3171C25.1655 15.3643 25.3855 16.9462 25.3279 16.9566C25.2703 16.9671 24.8617 17.0614 24.8617 17.0614C24.8303 16.8466 24.5632 15.5162 24.5579 15.38ZM25.3436 15.2281L25.5584 16.9304C25.6684 16.9252 26.1136 16.8938 26.1555 16.8885C26.0927 16.2443 25.9827 15.2281 25.9827 15.2281C25.7731 15.1862 25.5531 15.1862 25.3436 15.2281ZM24.9193 17.5904C24.9193 17.5904 25.8884 17.3442 26.2393 17.4647C26.4174 18.109 26.7422 21.7232 26.7736 21.8699C26.5536 21.8961 25.8308 21.9589 25.7731 21.9746C25.726 21.7023 24.9193 17.7633 24.9193 17.5904ZM28.5074 15.4219C28.565 15.4376 29.0783 15.3695 29.0836 15.4062C29.094 15.5319 29.1464 17.0509 29.0888 17.0562C29.0312 17.0614 28.6226 17.0981 28.6226 17.0981C28.6121 16.8885 28.4969 15.5633 28.5074 15.4219ZM29.2983 15.38L29.3402 17.0614C29.4502 17.0614 29.8902 17.0876 29.9374 17.0823C29.9269 16.4381 29.9374 15.4219 29.9374 15.4219C29.7278 15.3852 29.5131 15.3695 29.2983 15.38ZM28.6226 17.6376C28.6226 17.6376 29.6126 17.5066 29.9478 17.6638C30.0212 18.418 30.0107 21.9327 30.0212 22.0794C29.7959 22.0794 29.0783 22.0899 29.0207 22.1004C29.0102 21.828 28.6069 17.8104 28.6226 17.6376ZM26.3231 13.3162C26.8941 16.2285 27.3288 21.2047 27.3445 21.5242C27.3445 21.5242 27.795 21.5347 28.3031 21.5661C28.0045 18.4285 27.6379 13.4157 27.6431 13.2534C27.5174 13.1119 26.3231 13.3162 26.3231 13.3162ZM25.066 20.2042C24.956 19.3871 22.0332 18.4599 20.3885 18.7585C20.3885 18.7585 20.1842 16.9566 20.1056 15.2124C20.0375 13.7143 20.0951 12.2581 20.1109 12.0172C20.0009 11.9386 18.8171 12.5043 18.178 12.74C18.178 12.74 18.9428 15.9771 19.498 22.6923C19.498 22.6923 20.3832 22.7865 21.9023 22.4932C23.4213 22.1999 25.2179 21.2832 25.066 20.2042ZM21.4937 21.6761L21.237 19.8271C21.2999 19.7956 22.8765 20.3823 23.0441 20.4871C23.018 20.6023 21.4937 21.6761 21.4937 21.6761ZM12.3848 15.38C12.4476 15.3905 12.94 15.2805 12.961 15.3171C12.9924 15.3643 13.2124 16.9462 13.1548 16.9566C13.0972 16.9671 12.6886 17.0614 12.6886 17.0614C12.6572 16.8466 12.39 15.5162 12.3848 15.38ZM13.1705 15.2281L13.3852 16.9304C13.4952 16.9252 13.9405 16.8938 13.9824 16.8885C13.9143 16.2443 13.8095 15.2281 13.8095 15.2281C13.6 15.1862 13.38 15.1862 13.1705 15.2281ZM12.7462 17.5904C12.7462 17.5904 13.7152 17.3442 14.0662 17.4647C14.2443 18.109 14.569 21.7232 14.6005 21.8699C14.3805 21.8961 13.6576 21.9589 13.6 21.9746C13.5529 21.7023 12.7462 17.7633 12.7462 17.5904ZM16.3342 15.4219C16.3919 15.4376 16.9052 15.3695 16.9104 15.4062C16.9209 15.5319 16.9733 17.0509 16.9157 17.0562C16.858 17.0614 16.4495 17.0981 16.4495 17.0981C16.439 16.8885 16.329 15.5633 16.3342 15.4219ZM17.1252 15.38L17.1671 17.0614C17.2771 17.0614 17.7171 17.0876 17.7642 17.0823C17.7537 16.4381 17.7642 15.4219 17.7642 15.4219C17.5547 15.3852 17.3399 15.3748 17.1252 15.38ZM16.4495 17.6376C16.4495 17.6376 17.4395 17.5066 17.7747 17.6638C17.848 18.418 17.8376 21.9327 17.848 22.0794C17.6228 22.0794 16.9052 22.0899 16.8476 22.1004C16.8423 21.828 16.4338 17.8104 16.4495 17.6376ZM14.15 13.3162C14.7209 16.2285 15.1557 21.2047 15.1714 21.5242C15.1714 21.5242 15.6219 21.5347 16.13 21.5661C15.8314 18.4285 15.4647 13.4157 15.47 13.2481C15.3443 13.1119 14.15 13.3162 14.15 13.3162ZM12.8929 20.2042C12.7829 19.3871 9.86006 18.4599 8.21532 18.7585C8.21532 18.7585 8.01104 16.9566 7.93247 15.2124C7.86438 13.7143 7.922 12.2581 7.93771 12.0172C7.82771 11.9439 6.64392 12.5043 6.00488 12.74C6.00488 12.74 6.76963 15.9771 7.32486 22.6923C7.32486 22.6923 8.21009 22.7865 9.72911 22.4932C11.2481 22.1999 13.0448 21.2832 12.8929 20.2042ZM9.32055 21.6761L9.06388 19.8271C9.12674 19.7956 10.7034 20.3823 10.871 20.4871C10.8448 20.6023 9.32055 21.6761 9.32055 21.6761Z" fill="#444444"/>
</g>
</g>
<defs>
<clipPath id="clip0_1020_4124">
<rect width="36" height="36" fill="white"/>
</clipPath>
<clipPath id="clip1_1020_4124">
<rect width="24.0187" height="10.6982" fill="white" transform="translate(6.00488 12.0098)"/>
</clipPath>
</defs>
</svg>
