<svg width="24" height="24" viewBox="0 0 24 24" fill="none" xmlns="http://www.w3.org/2000/svg">
<path d="M24 0H0V24H24V0Z" fill="white" fill-opacity="0.01"/>
<path d="M2 18.5C2 19.0523 2.44772 19.5 3 19.5H21C21.5523 19.5 22 19.0523 22 18.5V12V6.5C22 5.39543 21.1046 4.5 20 4.5H12H4C2.89543 4.5 2 5.39543 2 6.5V12V18.5Z" stroke="#121212" stroke-width="2"/>
<path d="M2 4.5L12 12L22 4.5" stroke="#121212" stroke-width="2"/>
<path d="M12 4.5H3C2.44772 4.5 2 4.94772 2 5.5V12" stroke="#121212" stroke-width="2"/>
<path d="M22 12V5.5C22 4.94772 21.5523 4.5 21 4.5H12" stroke="#121212" stroke-width="2"/>
</svg>
