<svg width="36" height="36" viewBox="0 0 36 36" fill="none" xmlns="http://www.w3.org/2000/svg">
<circle cx="18" cy="18" r="17.25" stroke="#444444" stroke-width="1.5"/>
<path d="M24.2885 11.8259C22.0082 11.0558 18.8723 10.9289 15.935 13.1729C14.3081 14.5346 13.067 16.3874 12.7325 18.743C11.8451 17.8136 11.225 16.3445 11.0585 15.2312C10.8167 13.6103 11.2034 11.9852 12.3518 10.5962C14.0717 8.5172 16.373 8 17.8799 8C20.7509 8.0003 23.2865 9.7646 24.2888 11.8259H24.2885ZM26.5805 15.3599C28.8353 18.2861 28.2128 22.7789 25.0505 25.2155C24.2651 25.8209 23.3495 26.1749 22.4552 26.4227C23.2209 25.6018 23.8008 24.6257 24.1556 23.5607C25.5395 19.4189 23.2952 14.9144 19.1432 13.4999C19.0532 13.4693 18.9629 13.4426 18.8723 13.4153C21.6767 12.3752 24.7835 13.0277 26.5805 15.3599ZM17.8715 22.811C19.7924 22.811 21.3137 22.364 22.7507 21.3071C22.7135 21.905 22.5338 22.6247 22.3694 23.0486C21.0167 26.5385 17.1014 28.0514 12.998 26.7035C9.42984 25.5314 7.24344 21.3476 8.24244 17.8553C8.51034 16.9193 8.78394 16.2773 9.29784 15.4694C9.60624 17.7206 11.0078 19.9103 13.0511 21.3038C13.2065 21.4088 13.3127 21.5834 13.3214 21.7853C13.3225 21.8514 13.3144 21.9173 13.2974 21.9812L12.9545 23.5382C12.9389 23.6111 12.9119 23.6879 12.9155 23.7638C12.9224 23.9318 13.064 24.0629 13.2314 24.0557C13.2974 24.0527 13.3499 24.0257 13.4042 23.9912L15.3431 22.7483C15.4889 22.6547 15.6452 22.5944 15.8192 22.5869C15.894 22.5844 15.9688 22.5912 16.0418 22.607C16.6298 22.7384 17.2406 22.811 17.8718 22.811H17.8715Z" fill="#444444"/>
</svg>
