<svg width="36" height="36" viewBox="0 0 36 36" fill="none" xmlns="http://www.w3.org/2000/svg">
<circle cx="18" cy="18" r="17.25" stroke="#444444" stroke-width="1.5"/>
<g clip-path="url(#clip0_1831_5555)">
<path d="M18.0381 19.0682C18.2143 18.421 18.3908 17.7737 18.5674 17.1264C19.1937 14.8295 19.8187 12.5322 20.4424 10.2345C20.4922 10.0553 20.5684 9.99951 20.7502 10C23.0817 10.0056 25.4136 10.0056 27.7461 10C27.9398 10 28.0055 10.0568 28.0021 10.2544C27.9911 10.8768 27.9896 11.4992 28.0021 12.1221C28.0065 12.3361 27.9264 12.4009 27.7272 12.3839C27.5862 12.3767 27.445 12.3767 27.304 12.3839C26.8873 12.3899 26.5811 12.6862 26.5806 13.1074C26.5776 16.3029 26.5776 19.4986 26.5806 22.6945C26.5806 23.1286 26.9047 23.4413 27.3344 23.4458C27.9991 23.4498 27.9991 23.4498 27.9991 24.1055C27.9991 24.5536 27.9901 25.0017 28.0031 25.4498C28.0085 25.6594 27.9533 25.7381 27.7272 25.7371C25.5444 25.7282 23.3618 25.7282 21.1793 25.7371C20.9403 25.7371 20.8856 25.657 20.8906 25.4384C20.9025 24.8658 20.904 24.2932 20.8906 23.7201C20.8851 23.4951 20.9638 23.4338 21.1778 23.4433C21.5413 23.4587 21.9063 23.4473 22.2921 23.4473V13.2458C22.2574 13.3028 22.2271 13.3624 22.2015 13.4241C21.1158 17.315 20.0305 21.2062 18.9458 25.0978C18.77 25.7296 18.7705 25.7296 18.1212 25.7296C17.5153 25.7296 16.9094 25.7227 16.3039 25.7331C16.1187 25.7366 16.0286 25.6933 15.9753 25.4976C15.3722 23.2803 14.7627 21.065 14.147 18.8517C13.6438 17.0284 13.1403 15.2052 12.6364 13.3822C12.6279 13.3519 12.612 13.3235 12.5687 13.2209C12.5539 13.3 12.543 13.3797 12.5363 13.4599C12.5363 16.7052 12.535 19.9507 12.5323 23.1963C12.5323 23.3955 12.5985 23.4552 12.7902 23.4488C13.1298 23.4368 13.4709 23.4488 13.8109 23.4433C13.9712 23.4398 14.032 23.4986 14.0305 23.6599C14.0255 24.2826 14.0255 24.9051 14.0305 25.5275C14.0305 25.6769 13.9807 25.7321 13.8288 25.7321C11.9534 25.7288 10.078 25.7288 8.20258 25.7321C8.04674 25.7321 8.00342 25.6689 8.00342 25.5245C8.0074 24.8938 8.0074 24.2632 8.00342 23.6325C8.00342 23.4936 8.0562 23.4373 8.19461 23.4433C8.35195 23.4503 8.51028 23.4433 8.66762 23.4433C9.10428 23.4383 9.42144 23.1301 9.42193 22.6915C9.42393 19.4959 9.42393 16.3003 9.42193 13.1044C9.42193 12.6882 9.11324 12.3899 8.6965 12.3815H8.64671C8.00541 12.3765 8.00541 12.3765 8.00541 11.7227C8.00541 11.2328 8.01089 10.7434 8.00541 10.2534C8.00242 10.0812 8.03977 10.0005 8.23743 10.001C10.5942 10.007 12.9509 10.007 15.3076 10.001C15.4779 10.001 15.5337 10.0707 15.574 10.2206C16.0012 11.8139 16.4319 13.4071 16.866 15.0004C17.2245 16.3218 17.5838 17.6426 17.944 18.9627C17.9539 18.9995 17.9699 19.0349 17.9833 19.0707L18.0381 19.0682Z" fill="#444444"/>
</g>
<defs>
<clipPath id="clip0_1831_5555">
<rect width="20" height="16" fill="white" transform="translate(8 10)"/>
</clipPath>
</defs>
</svg>
