<svg width="36" height="36" viewBox="0 0 36 36" fill="none" xmlns="http://www.w3.org/2000/svg">
<g clip-path="url(#clip0_1020_4179)">
<circle cx="18.014" cy="18.014" r="17.2635" stroke="#444444" stroke-width="1.50117"/>
<path fill-rule="evenodd" clip-rule="evenodd" d="M17.4653 18.9472L17.4653 18.9474C17.3321 19.1842 17.2051 19.4098 17.0726 19.6334C17.0524 19.6562 17.0275 19.6747 16.9995 19.6875C16.9716 19.7003 16.9411 19.7072 16.9102 19.7078C16.3596 19.7126 15.8091 19.7141 15.2585 19.7078C14.9069 19.7039 14.7664 19.5574 14.8184 19.2161C14.8537 19.0197 14.9174 18.8291 15.0076 18.65C15.1634 18.324 15.3275 18.0019 15.4917 17.6799L15.4917 17.6799L15.4917 17.6799L15.4917 17.6799L15.4917 17.6799L15.4917 17.6799L15.4918 17.6797C15.5612 17.5435 15.6307 17.4073 15.6994 17.2708C15.7807 17.1125 15.7628 17.0903 15.5825 17.0895H14.7112C14.3579 17.0855 14.1769 16.8987 14.2694 16.5693C14.3665 16.2536 14.4923 15.9471 14.6454 15.6533C14.8284 15.2799 15.0192 14.9093 15.2101 14.5383L15.2101 14.5383L15.2101 14.5382L15.2102 14.5382C15.3581 14.2508 15.5061 13.9632 15.6507 13.6739C15.6699 13.6217 15.7065 13.5773 15.7547 13.5479C15.8028 13.5185 15.8597 13.5057 15.9163 13.5116C16.1371 13.5161 16.3582 13.5154 16.5795 13.5148C16.7454 13.5143 16.9115 13.5138 17.0775 13.5155C17.1134 13.5155 17.1493 13.5181 17.1966 13.5215C17.2189 13.5231 17.2438 13.5248 17.2724 13.5266L16.8461 14.3223L16.2086 15.51C16.2039 15.5187 16.1985 15.5279 16.193 15.5373C16.1728 15.5718 16.1511 15.6089 16.1574 15.6382C16.1671 15.7035 16.2019 15.7627 16.2549 15.8037C16.2867 15.8128 16.3204 15.8137 16.3527 15.8063C16.385 15.799 16.4148 15.7836 16.4392 15.7617C16.505 15.6564 16.5919 15.6477 16.6999 15.6485H17.8977C17.9475 15.6516 17.9971 15.6574 18.0463 15.6659C17.9975 15.7601 17.9505 15.8517 17.9043 15.9417C17.8383 16.0704 17.7739 16.1958 17.7084 16.3207C17.3939 16.9177 17.0794 17.5141 16.7649 18.1101C16.639 18.3476 16.7023 18.4529 16.9752 18.4561C17.1655 18.4617 17.3558 18.4614 17.5697 18.461L17.7409 18.4608C17.6441 18.6295 17.5534 18.7907 17.4654 18.9471L17.4654 18.9471L17.4653 18.9472ZM10.656 20.5498V17.1571L10.6558 16.5811C10.6555 15.6219 10.6551 14.6641 10.6633 13.7035C10.6641 13.557 10.617 13.5119 10.4667 13.5119C10.0607 13.519 9.6547 13.5214 9.24867 13.5119C9.0887 13.5079 9.04241 13.5539 9.04241 13.7122V15.7977C9.04241 16.2984 9.04178 16.7987 9.04115 17.299V17.2991V17.2992V17.2993V17.2993V17.2994V17.2995C9.03989 18.2999 9.03862 19.3001 9.04241 20.3028C9.04323 20.4825 8.98801 20.5506 8.80367 20.5403C8.64554 20.5313 8.48618 20.5331 8.32705 20.5349H8.32704C8.26226 20.5356 8.19752 20.5363 8.13292 20.5363C8.02898 20.5347 7.97376 20.5632 7.98594 20.6788C8.02005 21.0256 8.14591 21.332 8.42607 21.5601C8.80448 21.868 9.69449 21.9211 10.1135 21.6646C10.1844 21.6207 10.2486 21.5674 10.3043 21.5062C10.5407 21.2419 10.6663 20.9004 10.656 20.5498ZM17.2644 21.4611C17.2062 21.5701 17.1471 21.6806 17.0898 21.7944C17.1236 21.798 17.1522 21.802 17.178 21.8057L17.178 21.8057C17.2143 21.8108 17.2451 21.8152 17.2774 21.8165H22.3933C22.5216 21.8165 22.5744 21.7849 22.5744 21.6479C22.5668 21.2594 22.5668 20.8707 22.5744 20.4817C22.5768 20.3494 22.5313 20.3075 22.3973 20.3075C22.2142 20.31 22.0309 20.3097 21.8475 20.3094H21.8475H21.8475H21.8474H21.8474H21.8474H21.8473C21.6315 20.3091 21.4155 20.3087 21.1996 20.313C21.0501 20.3154 20.9941 20.2663 20.9982 20.119C21.0022 19.8134 21.0022 19.5062 21.0022 19.2006L21.0023 18.7782C21.0023 17.7933 21.0024 16.8089 20.9982 15.8246C20.9982 15.6781 21.0469 15.6235 21.1971 15.629C21.2867 15.631 21.3766 15.6301 21.4665 15.6292C21.5949 15.628 21.7233 15.6268 21.8508 15.6338C21.9978 15.6417 22.0376 15.5902 22.0376 15.4532C22.0311 15.0405 22.0311 14.628 22.0376 14.2157C22.04 14.0811 21.9994 14.0257 21.8541 14.0257H18.5141C18.3931 14.0257 18.3582 14.0732 18.3582 14.1841C18.3639 14.6148 18.3647 15.0447 18.3582 15.4746C18.3566 15.606 18.4134 15.633 18.5328 15.633C18.6234 15.6306 18.7147 15.6314 18.8064 15.6322H18.8064H18.8064H18.8064H18.8064H18.8064H18.8064C18.9316 15.6332 19.0573 15.6343 19.1824 15.6274C19.3562 15.6179 19.4122 15.6757 19.4122 15.8475C19.4074 17.2727 19.4074 18.6978 19.4122 20.123C19.4131 20.2766 19.353 20.3154 19.2092 20.3114C19.0975 20.3074 18.9851 20.3103 18.8729 20.3132H18.8729H18.8728H18.8728H18.8728H18.8728H18.8728C18.6995 20.3178 18.5266 20.3223 18.3566 20.3011C17.9684 20.2536 17.7459 20.3898 17.6103 20.7445C17.5171 20.9884 17.3927 21.2211 17.2644 21.4611ZM6.66801 20.7059C6.71158 20.788 6.75515 20.87 6.80049 20.9509L6.8752 20.9786C6.91394 20.9282 6.95699 20.8794 7.00005 20.8306C7.09419 20.7239 7.18834 20.6171 7.23738 20.4933C7.40501 20.0848 7.53942 19.6642 7.63934 19.2352C7.88237 18.1234 7.91898 16.9903 7.95556 15.8583V15.8583L7.95766 15.7934C7.96578 15.6628 7.90001 15.6517 7.79525 15.6517L7.68782 15.6529C7.29406 15.6574 6.90036 15.6619 6.50735 15.6517C6.33925 15.647 6.30596 15.7 6.31327 15.8528C6.36036 16.8029 6.34575 17.7609 6.08021 18.6754C5.91211 19.2566 6.03473 19.7047 6.35468 20.1671C6.4726 20.3379 6.57033 20.5219 6.668 20.7059L6.66801 20.7059ZM12.8555 20.9779C12.7316 20.8553 12.6183 20.7229 12.5168 20.5821C12.2537 20.1569 12.1474 19.6763 12.054 19.1957C11.8396 18.092 11.7803 16.9788 11.7535 15.8553C11.7535 15.689 11.8006 15.6455 11.9671 15.6503C12.3731 15.6613 12.7791 15.6598 13.1851 15.6503C13.3476 15.6463 13.4044 15.6835 13.3955 15.8545C13.3491 16.732 13.4102 17.6118 13.5774 18.4752C13.6069 18.6259 13.6437 18.7753 13.6806 18.9248L13.6807 18.9249C13.7087 19.0386 13.7368 19.1524 13.7617 19.267C13.7796 19.3282 13.7767 19.3935 13.7536 19.453C13.5168 19.8839 13.2744 20.3117 13.0318 20.7397L12.9358 20.9091C12.93 20.917 12.9219 20.9234 12.907 20.9352C12.895 20.9448 12.8786 20.9578 12.8555 20.9779ZM16.9021 20.4917L17.0158 20.27C16.9672 20.2668 16.9301 20.2637 16.8966 20.2608L16.8966 20.2608L16.8965 20.2608C16.8719 20.2586 16.8491 20.2567 16.825 20.255H14.9727C14.8826 20.259 14.7925 20.2453 14.708 20.2146C14.5902 20.1631 14.5464 20.2122 14.4985 20.3025C14.2944 20.6899 14.0881 21.0766 13.8797 21.4624C13.7652 21.673 13.7977 21.7506 14.0372 21.7997C14.0907 21.8103 14.1451 21.8153 14.1996 21.8147C14.8111 21.8203 15.4226 21.825 16.034 21.8147C16.0784 21.8091 16.1209 21.794 16.1586 21.7706C16.1963 21.7472 16.2284 21.7161 16.2525 21.6794C16.4244 21.379 16.586 21.0787 16.7476 20.7784C16.799 20.6828 16.8504 20.5873 16.9021 20.4917ZM28.4073 15.0499C28.4194 14.9875 28.4286 14.9239 28.4379 14.8604C28.4591 14.715 28.4802 14.5695 28.5356 14.4378C28.6728 14.114 29.0569 13.9667 29.4191 14.0578C29.5904 14.0997 29.7415 14.1984 29.8465 14.3369C29.9515 14.4754 30.0039 14.6451 29.9949 14.8171C29.9929 14.9869 29.9295 15.1505 29.8158 15.2791C29.7021 15.4077 29.5455 15.4931 29.3736 15.5202C29.0969 15.5447 28.8189 15.5511 28.5413 15.5392C28.5072 15.5392 28.4503 15.4687 28.4463 15.4267C28.4382 15.3034 28.4365 15.1797 28.4414 15.0562L28.4073 15.0499ZM24.2068 19.6178L24.2068 19.6161C24.2057 19.2862 24.2046 18.9563 24.2079 18.6264C24.2079 18.4681 24.1559 18.4087 23.9886 18.4126C23.764 18.4183 23.5394 18.4177 23.3148 18.4171H23.3148C23.1334 18.4166 22.952 18.4162 22.7705 18.419C22.6341 18.419 22.5919 18.3739 22.5943 18.2432C22.6008 17.8426 22.6008 17.442 22.5943 17.0413C22.5943 16.8988 22.6374 16.8434 22.7925 16.8474C23.0158 16.8521 23.2391 16.8517 23.4624 16.8512C23.6451 16.8508 23.8278 16.8504 24.0105 16.8529C24.164 16.8529 24.2111 16.7991 24.2071 16.655C24.1981 16.3723 24.1973 16.0889 24.2071 15.807C24.2127 15.6431 24.1648 15.5695 23.9829 15.5806C23.8765 15.5873 23.7695 15.5855 23.6625 15.5837C23.5695 15.5821 23.4765 15.5805 23.3836 15.5845C23.2464 15.5909 23.1879 15.5521 23.1904 15.408C23.1993 14.9962 23.1977 14.5837 23.1944 14.1712C23.1944 14.0572 23.2334 14.0129 23.352 14.0129C23.4509 14.0154 23.55 14.0147 23.6491 14.0139C23.768 14.013 23.887 14.0121 24.0057 14.0168C24.1543 14.0224 24.2233 13.9725 24.2046 13.8245V13.7358C24.1835 13.5711 24.246 13.507 24.4263 13.5125C24.6489 13.5202 24.8717 13.5186 25.0947 13.517C25.2411 13.5159 25.3875 13.5149 25.5339 13.5165C25.7776 13.5165 25.7776 13.5165 25.7776 13.7461V13.7643C25.7776 14.009 25.7776 14.009 26.0175 14.015L26.0268 14.0153C26.2744 14.0105 26.5219 14.0237 26.7674 14.0549C27.1866 14.1253 27.5663 14.3393 27.8381 14.6583C28.1099 14.9773 28.256 15.3804 28.2502 15.7951C28.2502 15.8852 28.2512 15.9753 28.2522 16.0654L28.2522 16.0659C28.2542 16.2464 28.2562 16.4269 28.2502 16.6075C28.2421 16.7848 28.2933 16.8513 28.4938 16.8584C29.2133 16.8814 29.7541 17.2836 29.962 17.9424C30.0076 18.107 30.0289 18.277 30.0254 18.4475C30.0284 18.72 30.0272 18.9925 30.026 19.265C30.0244 19.6465 30.0227 20.0279 30.0327 20.4094C30.0554 21.2851 29.3351 21.8623 28.5872 21.8116C28.5206 21.8071 28.4531 21.8047 28.3854 21.8022H28.3854C28.1917 21.7952 27.9967 21.7882 27.8174 21.7325C27.3091 21.5781 27.0119 21.2154 26.9104 20.7032C26.8803 20.5535 26.9225 20.491 27.0955 20.4965C27.3164 20.5038 27.5375 20.5027 27.7587 20.5017H27.7587H27.7588C27.9247 20.5009 28.0907 20.5002 28.2567 20.5029C28.3655 20.5029 28.4256 20.4752 28.4248 20.3532V18.9043C28.42 18.5536 28.2689 18.415 27.9124 18.415C27.7493 18.415 27.5862 18.4154 27.423 18.4158C26.9568 18.4168 26.4906 18.4179 26.0244 18.4103C25.8352 18.4103 25.7889 18.476 25.7897 18.6478C25.7929 19.1223 25.793 19.5966 25.7931 20.0707C25.7932 20.5746 25.7933 21.0783 25.797 21.582C25.797 21.7538 25.7613 21.8196 25.5697 21.8148C25.1823 21.8006 24.795 21.8061 24.4076 21.8148C24.2647 21.8148 24.2176 21.7689 24.2192 21.6311C24.223 21.2939 24.2218 20.9563 24.2205 20.6185C24.2199 20.4496 24.2192 20.2807 24.2192 20.1117L24.2079 20.111C24.2079 19.9466 24.2073 19.7822 24.2068 19.6178ZM25.7767 16.225V16.7001C25.7767 16.8022 25.819 16.8513 25.9278 16.8489L25.9292 16.8489L25.9328 16.8489C25.9554 16.8485 25.9779 16.8482 26.0004 16.8481C26.0442 16.848 26.088 16.8485 26.1317 16.849H26.1318C26.1761 16.8495 26.2204 16.85 26.2647 16.8499C26.3415 16.8497 26.418 16.8478 26.494 16.841C26.5268 16.8328 26.5569 16.8166 26.5815 16.7939C26.6061 16.7711 26.6243 16.7427 26.6344 16.7112C26.6442 16.4301 26.6442 16.1466 26.6344 15.8648C26.6279 15.6787 26.5248 15.5916 26.3316 15.5837L26.3263 15.5837C26.2419 15.58 26.1571 15.5813 26.0724 15.5825L26.0724 15.5825C26.0319 15.5831 25.9914 15.5837 25.9509 15.5837L25.9507 15.5837C25.9179 15.5824 25.8902 15.5851 25.8673 15.5921C25.7979 15.6101 25.7694 15.6585 25.7719 15.75C25.7748 15.8072 25.7763 15.8647 25.7769 15.9224V16.1496L25.7767 16.225Z" fill="#444444"/>
</g>
<defs>
<clipPath id="clip0_1020_4179">
<rect width="36" height="36" fill="white"/>
</clipPath>
</defs>
</svg>
