<svg width="24" height="24" viewBox="0 0 24 24" fill="none" xmlns="http://www.w3.org/2000/svg">
<path d="M15.8184 18.814C16.4669 18.814 17.0858 18.706 17.6507 18.5097C17.7336 18.4812 18.1186 18.5483 18.8064 18.7117C18.8571 18.7235 18.9101 18.725 18.9615 18.716C19.0129 18.707 19.0615 18.6878 19.1037 18.6598C19.1459 18.6318 19.1807 18.5956 19.2056 18.5539C19.2306 18.5123 19.2449 18.4661 19.2477 18.4188C19.2813 17.8443 19.3135 17.5426 19.3457 17.5144C20.1186 16.806 20.5907 15.8651 20.5907 14.8318C20.5907 12.6325 18.4536 10.8496 15.818 10.8496C13.1825 10.8496 11.045 12.6325 11.045 14.8318C11.045 17.0308 13.1825 18.814 15.818 18.814H15.8184ZM9.62573 17.0039C8.84561 16.938 8.07721 16.7867 7.3374 16.5533C7.25599 16.5274 7.16676 16.5306 7.08784 16.5621C6.77774 16.6856 6.46833 16.8047 6.15893 16.919L3.79359 17.7899C3.73779 17.8102 3.67716 17.8172 3.61752 17.8101C3.55789 17.8031 3.50126 17.7823 3.45309 17.7497C3.40492 17.7171 3.36683 17.6739 3.34248 17.6241C3.31813 17.5744 3.30835 17.5198 3.31408 17.4656L3.55383 15.1076C3.57518 14.8955 3.59233 14.6874 3.60494 14.4825C3.60908 14.3995 3.57718 14.3184 3.51603 14.2564C2.23151 12.9416 1.5 11.2854 1.5 9.52149C1.49965 5.30687 5.61572 1.99951 10.5676 1.99951C15.5202 1.99951 19.6363 5.30687 19.6363 9.52181C19.6363 9.65418 19.6317 9.78528 19.624 9.91575C19.617 10.0266 19.6734 10.1311 19.7738 10.1944C21.4199 11.2331 22.5 12.9093 22.5 14.8315C22.5 16.0681 22.045 17.2389 21.234 18.2035C21.1921 18.2522 21.1673 18.3112 21.163 18.3729C21.1535 18.5208 21.1441 18.6949 21.1339 18.8944L21.0464 20.6954C21.0443 20.743 21.0304 20.7896 21.0057 20.8316C20.9809 20.8737 20.946 20.9102 20.9035 20.9383C20.861 20.9665 20.812 20.9856 20.7602 20.9942C20.7085 21.0029 20.6552 21.0009 20.6044 20.9883L18.7325 20.5234C18.4661 20.4561 18.1983 20.3932 17.9293 20.3347C17.8719 20.3223 17.812 20.3236 17.7553 20.3385C17.1323 20.5 16.4806 20.5839 15.818 20.5839C13.0439 20.5839 10.6254 19.1209 9.62573 17.0039V17.0039ZM17.7224 9.3166C17.5887 6.23504 14.4366 3.76973 10.5683 3.76973C6.61428 3.76973 3.40858 6.34493 3.40858 9.52181C3.40858 11.0767 4.17649 12.4878 5.42392 13.5233C5.49777 13.5844 5.54152 13.669 5.54047 13.7596C5.53711 14.0909 5.52357 14.422 5.49987 14.7526C5.48272 14.9902 5.74417 15.1669 5.98532 15.0734C6.33632 14.9375 6.68463 14.7959 7.03009 14.6488C7.07468 14.6298 7.12332 14.6199 7.1726 14.6197C7.22188 14.6195 7.27061 14.6291 7.31535 14.6478C7.89982 14.887 8.51497 15.0594 9.14658 15.1608C9.13958 15.0513 9.13608 14.9414 9.13608 14.8315C9.13608 11.6106 12.1696 9.07942 15.818 9.07942C16.4774 9.07942 17.1173 9.16238 17.7224 9.3166" fill="#121212"/>
<path d="M17.5 14.9959C17.0305 14.9959 16.65 14.6153 16.65 14.1459C16.65 13.6764 17.0305 13.2959 17.5 13.2959C17.9695 13.2959 18.35 13.6764 18.35 14.1459C18.35 14.6153 17.9695 14.9959 17.5 14.9959Z" fill="#121212"/>
<path d="M14.1501 14.9432C13.6807 14.9432 13.3001 14.5626 13.3001 14.0932C13.3001 13.6237 13.6807 13.2432 14.1501 13.2432C14.6196 13.2432 15.0001 13.6237 15.0001 14.0932C15.0001 14.5626 14.6196 14.9432 14.1501 14.9432Z" fill="#121212"/>
<path d="M8 8.7042C8.66272 8.7042 9.2 8.16696 9.2 7.5042C9.2 6.84149 8.66272 6.3042 8 6.3042C7.33728 6.3042 6.8 6.84149 6.8 7.5042C6.8 8.16696 7.33728 8.7042 8 8.7042Z" fill="#121212"/>
<path d="M13 8.70469C13.6627 8.70469 14.2 8.16745 14.2 7.50469C14.2 6.84198 13.6627 6.30469 13 6.30469C12.3373 6.30469 11.8 6.84198 11.8 7.50469C11.8 8.16745 12.3373 8.70469 13 8.70469Z" fill="#121212"/>
</svg>
